<svg>
    <defs>
        <g id="pink-donut">
            <style>.cls-1{fill:#ffb4ce;}.cls-2{fill:#ef7fab;}.cls-3{fill:#12a0a5;}.cls-4{fill:#f2bc0e;}</style>
            <path class="cls-1" d="M49.09,2.13A47.91,47.91,0,1,0,97,50,47.91,47.91,0,0,0,49.09,2.13Zm1,68.08A20.68,20.68,0,1,1,70.78,49.53,20.68,20.68,0,0,1,50.1,70.21Z"/><path class="cls-2" d="M81.77,28.94C75.31,24.32,78.14,17.88,73.14,14s-13.87-1.11-19.42-2.22C48.79,10.79,42.07,9,42.07,9,31.52,7.34,31.52,17.33,23.2,21.77s-15,6.6-15.54,15.54c-.55,9.43,6.11,9.43,5.55,21.08s-2.77,20.53,10,22.75S40.06,93.66,50.39,92.8C63.71,91.69,62,82.25,72.59,80.59s14.47-5.53,16.09-10c2.22-6.1-5-8.32.55-19.42C93.12,43.41,89.76,34.64,81.77,28.94ZM50.39,69.49a20,20,0,1,1,20-20A20,20,0,0,1,50.39,69.49Z"/><path class="cls-3" d="M14.86,35.23a12.88,12.88,0,0,0,4.66,5.08c1.63,1,3.12-1.55,1.51-2.57a9.81,9.81,0,0,1-3.6-4c-.86-1.71-3.43-.21-2.57,1.5Z"/><path class="cls-3" d="M40.14,24.24l5.8-4.73c1.49-1.21-.63-3.3-2.1-2.1L38,22.13c-1.48,1.21.63,3.31,2.11,2.11Z"/><path class="cls-3" d="M63.78,24.91,68,30.34a1.54,1.54,0,0,0,2,.53,1.49,1.49,0,0,0,.53-2l-4.17-5.43a1.54,1.54,0,0,0-2-.53,1.49,1.49,0,0,0-.53,2Z"/><path class="cls-3" d="M77.05,48.41a11.26,11.26,0,0,1,4.13-3.95,1.49,1.49,0,0,0-1.5-2.57,14.3,14.3,0,0,0-5.2,5c-1,1.63,1.56,3.13,2.57,1.5Z"/><path class="cls-3" d="M68.28,71a6.23,6.23,0,0,1,3,2,1.49,1.49,0,0,0,2.1-2.11,8.92,8.92,0,0,0-4.27-2.74c-1.84-.55-2.62,2.32-.79,2.87Z"/><path class="cls-3" d="M43.9,76.47a23.74,23.74,0,0,0,.52,6.78c.41,1.87,3.29,1.08,2.87-.79a20.76,20.76,0,0,1-.42-6c.14-1.91-2.84-1.9-3,0Z"/><path class="cls-3" d="M27,67.8a5.06,5.06,0,0,1-2,3.41,1.48,1.48,0,0,0,0,2.1,1.51,1.51,0,0,0,2.1,0A7.93,7.93,0,0,0,30,67.8a1.51,1.51,0,0,0-1.49-1.49A1.53,1.53,0,0,0,27,67.8Z"/><path class="cls-4" d="M20,57.18l4.57,1.27a1.49,1.49,0,0,0,.79-2.87l-4.57-1.27a1.5,1.5,0,0,0-1.83,1,1.52,1.52,0,0,0,1,1.83Z"/><path class="cls-4" d="M28.71,24.6a18.89,18.89,0,0,0-5.05,5.15,1.51,1.51,0,0,0,.53,2,1.53,1.53,0,0,0,2-.54q.35-.51.72-1l-.23.3a17.79,17.79,0,0,1,3-3l-.3.24.76-.56a1.57,1.57,0,0,0,.69-.89,1.49,1.49,0,0,0-2.19-1.68Z"/><path class="cls-4" d="M54.77,23.39,54,17.56a1.62,1.62,0,0,0-.43-1,1.48,1.48,0,0,0-2.11,0,1.44,1.44,0,0,0-.43,1l.77,5.83a1.62,1.62,0,0,0,.43,1.05,1.48,1.48,0,0,0,2.11,0,1.44,1.44,0,0,0,.43-1.05Z"/><path class="cls-4" d="M72.71,37.37h4.58a1.49,1.49,0,0,0,0-3H72.71a1.49,1.49,0,0,0,0,3Z"/><path class="cls-4" d="M73.26,60.41a13,13,0,0,0,1.64,6.5,1.51,1.51,0,0,0,2,.53,1.53,1.53,0,0,0,.53-2,6.25,6.25,0,0,1-.33-.63A1.37,1.37,0,0,1,77,64.4c.08.2.09.23,0,.08l0-.1a10.88,10.88,0,0,1-.45-1.4q-.09-.34-.15-.69c0-.12,0-.23-.06-.35,0-.31,0,.34,0-.06a12,12,0,0,1-.06-1.47,1.49,1.49,0,0,0-3,0Z"/><path class="cls-4" d="M82.26,54.77l2.91-.83a1.5,1.5,0,0,0,1-1.83,1.5,1.5,0,0,0-1.83-1l-2.92.83a1.55,1.55,0,0,0-.89.68,1.59,1.59,0,0,0-.15,1.15,1.53,1.53,0,0,0,.69.89,1.58,1.58,0,0,0,1.15.15Z"/><path class="cls-4" d="M56.9,75.88q-.13.39-.3.78c0,.07-.06.13-.08.2.11-.34,0-.11,0,0s-.11.25-.17.38q-.37.78-.81,1.53c-.28.48-.59.94-.92,1.4l-.25.33c-.16.22.13-.15,0,0a1,1,0,0,1-.13.16c-.18.24-.38.46-.57.68a1.49,1.49,0,1,0,2.1,2.11,20.22,20.22,0,0,0,4-6.75,1.5,1.5,0,0,0-1-1.83,1.52,1.52,0,0,0-1.83,1Z"/><path class="cls-4" d="M32,80.63a13.09,13.09,0,0,1,3.25,0l-.39-.06a13,13,0,0,1,1.73.36,1.5,1.5,0,0,0,1.83-1,1.52,1.52,0,0,0-1-1.83A14.38,14.38,0,0,0,32,77.65a1.66,1.66,0,0,0-1.06.44,1.53,1.53,0,0,0-.43,1,1.51,1.51,0,0,0,.43,1,1.47,1.47,0,0,0,1.06.44Z"/><path class="cls-4" d="M19.87,49.21a17.25,17.25,0,0,1,1.63-.9L22,48.1l.21-.09c.27-.11.54-.22.81-.31a18,18,0,0,1,3.61-.88,1.52,1.52,0,0,0,.89-.68A1.49,1.49,0,0,0,27.62,45a1.54,1.54,0,0,0-1.83-1,19.18,19.18,0,0,0-7.42,2.69,1.49,1.49,0,0,0,1.5,2.57Z"/>
        </g>
        <g id="choc-donut">
            <style>.cls-1{fill:#f2cd9c;}.cls-2{fill:#7f6652;}.cls-3{fill:#fff;}</style>
            <path class="cls-1" d="M78.29,37.71C60,4,48.21,3.87,32,11S7.18,28.35,22.58,63.51C39,101,53.79,99.13,70,92S97.35,72.83,78.29,37.71Z"/><path class="cls-2" d="M76.53,41.21C61.38,9.29,46.69,7.42,33.34,13.29S13.1,28.49,28.2,62.45C44,98,56.39,95,69.73,89.12S94,78,76.53,41.21Z"/><path class="cls-3" d="M24.75,27.55a49.08,49.08,0,0,1,15.3-7.27,51,51,0,0,1,8.32-1.61c.64-.06,1.29-.13,2-.16.17,0,.83-.12,1,0-.23-.21.24-.26-.27.16-1,.82-1.77,1.91-2.71,2.77-3.92,3.6-8.4,6.5-12.58,9.78a49.94,49.94,0,0,0-5.68,5.1c-1.57,1.68-3.57,3.84-3.19,6.33s3,3.41,5.23,3.15c2.68-.32,5.29-1.57,7.77-2.57,5.27-2.13,10.46-4.52,16-6.08,1.4-.39,2.82-.73,4.26-1,1-.18,2.83-.75,3.8-.25s-.5,1.57-.94,2.05c-.64.7-1.32,1.36-2,2a93.91,93.91,0,0,1-9.5,7.46c-3.4,2.43-6.86,4.79-10.17,7.34-2.49,1.91-5.12,3.94-6.88,6.58-1.35,2-1.68,4.6.17,6.45,2.54,2.53,7.07,1.28,10,.34C54.19,65.05,62.68,59,72.48,56.37c1.6-.43,6.21-1.87,6,1.2-.13,2.21-3,3.88-4.61,5.06-3.54,2.6-7.25,5-10.86,7.49a57.21,57.21,0,0,0-9.39,7.53C52,79.45,49.81,82.41,51.3,85c1.6,2.75,5.57,2.16,8.15,1.59a58,58,0,0,0,11.81-4.37c1.72-.8,3.41-1.64,5.09-2.52s.19-3.46-1.51-2.57a92.38,92.38,0,0,1-11.24,5.1A36.71,36.71,0,0,1,58,83.82a7.76,7.76,0,0,1-3.58.05c-.47-.19-.54-.35-.58-.55a1.67,1.67,0,0,1,.14-1,9.81,9.81,0,0,1,2.31-3.1,65.94,65.94,0,0,1,9.54-7.4c3.6-2.47,7.29-4.84,10.76-7.49,1.94-1.49,4.2-3.18,4.78-5.71a4.75,4.75,0,0,0-2.55-5.44c-2.5-1.13-5.71-.11-8.19.62A62.52,62.52,0,0,0,62.47,57c-4.44,2-8.8,4.24-13.27,6.2A53.37,53.37,0,0,1,43,65.5a12.17,12.17,0,0,1-5.06.73,2.33,2.33,0,0,1-1.28-.53,1.86,1.86,0,0,1-.4-.6c.15.32-.09-.62-.06-.21a1.38,1.38,0,0,1,.14-.91A8.1,8.1,0,0,1,37,62.7c1.74-2.47,4.46-4.44,6.87-6.24,3.35-2.51,6.82-4.86,10.21-7.32a86.41,86.41,0,0,0,9.51-7.64c1.4-1.35,3.4-3.09,3.54-5.14.17-2.7-2.56-3.67-4.8-3.51-5.66.4-11.21,2.55-16.41,4.67-2.71,1.11-5.39,2.27-8.12,3.34-1.22.48-2.45,1-3.7,1.38a6.86,6.86,0,0,1-3.53.61c-2.47-.59,1.47-4.36,2.21-5.11a56.37,56.37,0,0,1,6-5.15c4.15-3.16,8.54-6.07,12.33-9.7,1.48-1.43,4.23-3.82,2.65-6.1s-5.2-1.15-7.32-.86A53.46,53.46,0,0,0,30.3,20.8a48.09,48.09,0,0,0-7,4.18c-1.55,1.1-.07,3.68,1.5,2.57Z"/>
        </g>
    </defs>
</svg>

