<svg id="Layer_1" data-name="Layer 1" xmlns="http://www.w3.org/2000/svg" viewBox="0 0 100 100"><defs><style>.cls-1{fill:#f2cd9c;}.cls-2{fill:#7f6652;}.cls-3{fill:#fff;}</style></defs><path class="cls-1" d="M78.29,37.71C60,4,48.21,3.87,32,11S7.18,28.35,22.58,63.51C39,101,53.79,99.13,70,92S97.35,72.83,78.29,37.71Z"/><path class="cls-2" d="M76.53,41.21C61.38,9.29,46.69,7.42,33.34,13.29S13.1,28.49,28.2,62.45C44,98,56.39,95,69.73,89.12S94,78,76.53,41.21Z"/><path class="cls-3" d="M24.75,27.55a49.08,49.08,0,0,1,15.3-7.27,51,51,0,0,1,8.32-1.61c.64-.06,1.29-.13,2-.16.17,0,.83-.12,1,0-.23-.21.24-.26-.27.16-1,.82-1.77,1.91-2.71,2.77-3.92,3.6-8.4,6.5-12.58,9.78a49.94,49.94,0,0,0-5.68,5.1c-1.57,1.68-3.57,3.84-3.19,6.33s3,3.41,5.23,3.15c2.68-.32,5.29-1.57,7.77-2.57,5.27-2.13,10.46-4.52,16-6.08,1.4-.39,2.82-.73,4.26-1,1-.18,2.83-.75,3.8-.25s-.5,1.57-.94,2.05c-.64.7-1.32,1.36-2,2a93.91,93.91,0,0,1-9.5,7.46c-3.4,2.43-6.86,4.79-10.17,7.34-2.49,1.91-5.12,3.94-6.88,6.58-1.35,2-1.68,4.6.17,6.45,2.54,2.53,7.07,1.28,10,.34C54.19,65.05,62.68,59,72.48,56.37c1.6-.43,6.21-1.87,6,1.2-.13,2.21-3,3.88-4.61,5.06-3.54,2.6-7.25,5-10.86,7.49a57.21,57.21,0,0,0-9.39,7.53C52,79.45,49.81,82.41,51.3,85c1.6,2.75,5.57,2.16,8.15,1.59a58,58,0,0,0,11.81-4.37c1.72-.8,3.41-1.64,5.09-2.52s.19-3.46-1.51-2.57a92.38,92.38,0,0,1-11.24,5.1A36.71,36.71,0,0,1,58,83.82a7.76,7.76,0,0,1-3.58.05c-.47-.19-.54-.35-.58-.55a1.67,1.67,0,0,1,.14-1,9.81,9.81,0,0,1,2.31-3.1,65.94,65.94,0,0,1,9.54-7.4c3.6-2.47,7.29-4.84,10.76-7.49,1.94-1.49,4.2-3.18,4.78-5.71a4.75,4.75,0,0,0-2.55-5.44c-2.5-1.13-5.71-.11-8.19.62A62.52,62.52,0,0,0,62.47,57c-4.44,2-8.8,4.24-13.27,6.2A53.37,53.37,0,0,1,43,65.5a12.17,12.17,0,0,1-5.06.73,2.33,2.33,0,0,1-1.28-.53,1.86,1.86,0,0,1-.4-.6c.15.32-.09-.62-.06-.21a1.38,1.38,0,0,1,.14-.91A8.1,8.1,0,0,1,37,62.7c1.74-2.47,4.46-4.44,6.87-6.24,3.35-2.51,6.82-4.86,10.21-7.32a86.41,86.41,0,0,0,9.51-7.64c1.4-1.35,3.4-3.09,3.54-5.14.17-2.7-2.56-3.67-4.8-3.51-5.66.4-11.21,2.55-16.41,4.67-2.71,1.11-5.39,2.27-8.12,3.34-1.22.48-2.45,1-3.7,1.38a6.86,6.86,0,0,1-3.53.61c-2.47-.59,1.47-4.36,2.21-5.11a56.37,56.37,0,0,1,6-5.15c4.15-3.16,8.54-6.07,12.33-9.7,1.48-1.43,4.23-3.82,2.65-6.1s-5.2-1.15-7.32-.86A53.46,53.46,0,0,0,30.3,20.8a48.09,48.09,0,0,0-7,4.18c-1.55,1.1-.07,3.68,1.5,2.57Z"/></svg>