<svg id="Layer_1" data-name="Layer 1" xmlns="http://www.w3.org/2000/svg" viewBox="0 0 100 100"><defs><style>.cls-1{fill:#ffb4ce;}.cls-2{fill:#ef7fab;}.cls-3{fill:#12a0a5;}.cls-4{fill:#f2bc0e;}</style></defs><path class="cls-1" d="M49.09,2.13A47.91,47.91,0,1,0,97,50,47.91,47.91,0,0,0,49.09,2.13Zm1,68.08A20.68,20.68,0,1,1,70.78,49.53,20.68,20.68,0,0,1,50.1,70.21Z"/><path class="cls-2" d="M81.77,28.94C75.31,24.32,78.14,17.88,73.14,14s-13.87-1.11-19.42-2.22C48.79,10.79,42.07,9,42.07,9,31.52,7.34,31.52,17.33,23.2,21.77s-15,6.6-15.54,15.54c-.55,9.43,6.11,9.43,5.55,21.08s-2.77,20.53,10,22.75S40.06,93.66,50.39,92.8C63.71,91.69,62,82.25,72.59,80.59s14.47-5.53,16.09-10c2.22-6.1-5-8.32.55-19.42C93.12,43.41,89.76,34.64,81.77,28.94ZM50.39,69.49a20,20,0,1,1,20-20A20,20,0,0,1,50.39,69.49Z"/><path class="cls-3" d="M14.86,35.23a12.88,12.88,0,0,0,4.66,5.08c1.63,1,3.12-1.55,1.51-2.57a9.81,9.81,0,0,1-3.6-4c-.86-1.71-3.43-.21-2.57,1.5Z"/><path class="cls-3" d="M40.14,24.24l5.8-4.73c1.49-1.21-.63-3.3-2.1-2.1L38,22.13c-1.48,1.21.63,3.31,2.11,2.11Z"/><path class="cls-3" d="M63.78,24.91,68,30.34a1.54,1.54,0,0,0,2,.53,1.49,1.49,0,0,0,.53-2l-4.17-5.43a1.54,1.54,0,0,0-2-.53,1.49,1.49,0,0,0-.53,2Z"/><path class="cls-3" d="M77.05,48.41a11.26,11.26,0,0,1,4.13-3.95,1.49,1.49,0,0,0-1.5-2.57,14.3,14.3,0,0,0-5.2,5c-1,1.63,1.56,3.13,2.57,1.5Z"/><path class="cls-3" d="M68.28,71a6.23,6.23,0,0,1,3,2,1.49,1.49,0,0,0,2.1-2.11,8.92,8.92,0,0,0-4.27-2.74c-1.84-.55-2.62,2.32-.79,2.87Z"/><path class="cls-3" d="M43.9,76.47a23.74,23.74,0,0,0,.52,6.78c.41,1.87,3.29,1.08,2.87-.79a20.76,20.76,0,0,1-.42-6c.14-1.91-2.84-1.9-3,0Z"/><path class="cls-3" d="M27,67.8a5.06,5.06,0,0,1-2,3.41,1.48,1.48,0,0,0,0,2.1,1.51,1.51,0,0,0,2.1,0A7.93,7.93,0,0,0,30,67.8a1.51,1.51,0,0,0-1.49-1.49A1.53,1.53,0,0,0,27,67.8Z"/><path class="cls-4" d="M20,57.18l4.57,1.27a1.49,1.49,0,0,0,.79-2.87l-4.57-1.27a1.5,1.5,0,0,0-1.83,1,1.52,1.52,0,0,0,1,1.83Z"/><path class="cls-4" d="M28.71,24.6a18.89,18.89,0,0,0-5.05,5.15,1.51,1.51,0,0,0,.53,2,1.53,1.53,0,0,0,2-.54q.35-.51.72-1l-.23.3a17.79,17.79,0,0,1,3-3l-.3.24.76-.56a1.57,1.57,0,0,0,.69-.89,1.49,1.49,0,0,0-2.19-1.68Z"/><path class="cls-4" d="M54.77,23.39,54,17.56a1.62,1.62,0,0,0-.43-1,1.48,1.48,0,0,0-2.11,0,1.44,1.44,0,0,0-.43,1l.77,5.83a1.62,1.62,0,0,0,.43,1.05,1.48,1.48,0,0,0,2.11,0,1.44,1.44,0,0,0,.43-1.05Z"/><path class="cls-4" d="M72.71,37.37h4.58a1.49,1.49,0,0,0,0-3H72.71a1.49,1.49,0,0,0,0,3Z"/><path class="cls-4" d="M73.26,60.41a13,13,0,0,0,1.64,6.5,1.51,1.51,0,0,0,2,.53,1.53,1.53,0,0,0,.53-2,6.25,6.25,0,0,1-.33-.63A1.37,1.37,0,0,1,77,64.4c.08.2.09.23,0,.08l0-.1a10.88,10.88,0,0,1-.45-1.4q-.09-.34-.15-.69c0-.12,0-.23-.06-.35,0-.31,0,.34,0-.06a12,12,0,0,1-.06-1.47,1.49,1.49,0,0,0-3,0Z"/><path class="cls-4" d="M82.26,54.77l2.91-.83a1.5,1.5,0,0,0,1-1.83,1.5,1.5,0,0,0-1.83-1l-2.92.83a1.55,1.55,0,0,0-.89.68,1.59,1.59,0,0,0-.15,1.15,1.53,1.53,0,0,0,.69.89,1.58,1.58,0,0,0,1.15.15Z"/><path class="cls-4" d="M56.9,75.88q-.13.39-.3.78c0,.07-.06.13-.08.2.11-.34,0-.11,0,0s-.11.25-.17.38q-.37.78-.81,1.53c-.28.48-.59.94-.92,1.4l-.25.33c-.16.22.13-.15,0,0a1,1,0,0,1-.13.16c-.18.24-.38.46-.57.68a1.49,1.49,0,1,0,2.1,2.11,20.22,20.22,0,0,0,4-6.75,1.5,1.5,0,0,0-1-1.83,1.52,1.52,0,0,0-1.83,1Z"/><path class="cls-4" d="M32,80.63a13.09,13.09,0,0,1,3.25,0l-.39-.06a13,13,0,0,1,1.73.36,1.5,1.5,0,0,0,1.83-1,1.52,1.52,0,0,0-1-1.83A14.38,14.38,0,0,0,32,77.65a1.66,1.66,0,0,0-1.06.44,1.53,1.53,0,0,0-.43,1,1.51,1.51,0,0,0,.43,1,1.47,1.47,0,0,0,1.06.44Z"/><path class="cls-4" d="M19.87,49.21a17.25,17.25,0,0,1,1.63-.9L22,48.1l.21-.09c.27-.11.54-.22.81-.31a18,18,0,0,1,3.61-.88,1.52,1.52,0,0,0,.89-.68A1.49,1.49,0,0,0,27.62,45a1.54,1.54,0,0,0-1.83-1,19.18,19.18,0,0,0-7.42,2.69,1.49,1.49,0,0,0,1.5,2.57Z"/></svg>